<svg xmlns="http://www.w3.org/2000/svg" xml:space="preserve" viewBox="0 0 500 500"><path fill="#039" d="M500.997 124.515v376.482H1V1h499.996v123.514M478.664 20.002H20.203v461.79H481.9V20.121c-.936-.043-1.797-.083-3.236-.123z"/><path fill="#fff" d="M478.954 20.002c1.15.04 2.01.08 2.947.123v461.671H20.206V20.006h458.75M26.635 468.031v7.174h448.566V26.8H26.637v441.232z"/><path fill="#013399" d="M19.087 475.046V19.257h463.687v463.511H19.087v-7.722M160.983 226.36c-6.61 6.402-13.338 12.686-19.8 19.236-9.702 9.831-19.064 19.981-26.225 31.905-6.856 11.413-10.93 23.61-8.707 37.069 1.31 7.936 2.965 15.885 5.321 23.567 8.94 29.142 25.775 53.996 43.29 78.582.373-.419.672-.686.887-1.008 21.148-31.823 42.05-63.815 63.514-95.421 14.402-21.207 22.668-44.412 23.607-69.853 1.08-29.3 1.5-58.644 1.346-87.963-.122-22.857-3.913-45.359-9.923-67.442-.746-2.74-1.657-5.436-2.696-8.815-.483 8.657-.81 16.516-1.38 24.358-2.01 27.667-11.447 52.46-28.68 74.298-11.966 15.163-25.883 28.38-40.554 41.485m106.11-128.975c-4.687 18.044-7.968 36.347-8.739 54.976a810.493 810.493 0 0 0-.601 45.642c.292 19.507.678 39.041 2.002 58.496 1.334 19.588 6.802 38.206 17.583 54.845 16.054 24.774 32.355 49.386 48.615 74.023 6.917 10.48 13.999 20.851 21.206 31.57 5.148-7.544 10.264-14.806 15.14-22.227 12.546-19.095 23.473-39.008 29.619-61.193 2.538-9.162 4.776-18.445 4.365-28.048-.49-11.453-4.879-21.622-11.143-31.03-10.626-15.954-24.344-29.153-38.011-42.387-12.26-11.869-24.937-23.334-36.747-35.633-25.44-26.495-38.43-58.355-39.197-95.126-.1-4.765-.014-9.536-.014-14.304l-1.055-.02c-.96 3.311-1.92 6.623-3.024 10.412z"/><path fill="#fecc00" d="M161.145 226.214c14.51-12.96 28.427-26.178 40.393-41.342 17.232-21.836 26.669-46.628 28.68-74.298.569-7.842.896-15.7 1.38-24.358 1.038 3.38 1.95 6.075 2.695 8.815 6.011 22.082 9.8 44.584 9.923 67.442.155 29.32-.264 58.662-1.345 87.963-.94 25.441-9.205 48.646-23.608 69.853-21.465 31.607-42.366 63.593-63.514 95.42-.214.323-.513.59-.887 1.009-17.513-24.589-34.35-49.442-43.289-78.582-2.357-7.682-4.012-15.632-5.322-23.569-2.223-13.457 1.851-25.654 8.707-37.068 7.161-11.922 16.523-22.073 26.225-31.904 6.462-6.549 13.192-12.834 19.962-19.38zM267.162 97.146c1.031-3.55 1.992-6.861 2.95-10.173l1.057.02c0 4.769-.087 9.538.014 14.305.768 36.768 13.755 68.626 39.197 95.125 11.81 12.299 24.487 23.765 36.747 35.634 13.667 13.232 27.384 26.431 38.009 42.385 6.267 9.41 10.654 19.579 11.144 31.032.411 9.603-1.827 18.886-4.365 28.047-6.145 22.187-17.073 42.098-29.619 61.193-4.875 7.421-9.99 14.683-15.14 22.227-7.206-10.717-14.288-21.09-21.205-31.57-16.26-24.638-32.563-49.25-48.615-74.022-10.782-16.641-16.25-35.258-17.583-54.845-1.325-19.456-1.71-38.99-2.003-58.497a810.514 810.514 0 0 1 .602-45.642c.77-18.629 4.05-36.932 8.809-55.215z"/></svg>