<svg xmlns="http://www.w3.org/2000/svg" xml:space="preserve" viewBox="0 0 500 500"><path fill="#039" d="M500.997 124.515v376.482H1V1h499.996v123.514M478.664 20.002H20.203v461.79H481.9V20.121c-.936-.043-1.797-.083-3.236-.123z"/><path fill="#fff" d="M478.954 20.002c1.15.04 2.01.08 2.947.123v461.671H20.206V20.006h458.75M26.635 468.031v7.174h448.566V26.8H26.637v441.232z"/><path fill="#013399" d="M26.633 467.73V26.797h448.566V475.2H26.633v-7.47m137.273-240.585c-6.394 6.194-12.903 12.273-19.155 18.609-9.385 9.511-18.442 19.33-25.37 30.865-6.632 11.041-10.573 22.84-8.423 35.86 1.267 7.678 2.869 15.368 5.148 22.799 8.649 28.192 24.935 52.236 41.879 76.02.36-.405.65-.663.858-.975 20.458-30.785 40.679-61.734 61.443-92.31 13.932-20.516 21.929-42.964 22.837-67.576 1.046-28.345 1.452-56.732 1.302-85.095-.118-22.112-3.785-43.88-9.599-65.243-.722-2.651-1.603-5.259-2.608-8.528-.467 8.375-.784 15.978-1.335 23.564-1.945 26.765-11.074 50.75-27.745 71.876-11.576 14.668-25.039 27.455-39.232 40.132m102.648-124.767c-4.534 17.456-7.708 35.162-8.453 53.184a784.07 784.07 0 0 0-.582 44.154c.283 18.871.656 37.768 1.937 56.589 1.29 18.949 6.58 36.96 17.01 53.057 15.53 23.966 31.3 47.776 47.03 71.609 6.691 10.139 13.542 20.172 20.514 30.541 4.981-7.298 9.93-14.323 14.647-21.502 12.137-18.473 22.708-37.736 28.653-59.198 2.455-8.863 4.62-17.844 4.223-27.134-.475-11.079-4.72-20.917-10.78-30.019-10.279-15.433-23.55-28.202-36.772-41.004-11.86-11.482-24.124-22.574-35.549-34.472-24.611-25.631-37.176-56.452-37.919-92.024-.096-4.61-.013-9.225-.013-13.838l-1.021-.02c-.929 3.204-1.857 6.408-2.925 10.073z"/><path fill="#fecc00" d="M164.063 227.008c14.037-12.538 27.5-25.325 39.076-39.994 16.67-21.124 25.799-45.108 27.744-71.876.551-7.586.868-15.188 1.336-23.564 1.004 3.27 1.886 5.877 2.607 8.528 5.815 21.362 9.481 43.13 9.599 65.243.15 28.365-.255 56.75-1.301 85.095-.909 24.612-8.905 47.06-22.838 67.576-20.765 30.577-40.985 61.52-61.443 92.31-.207.312-.497.57-.858.975-16.943-23.787-33.23-47.83-41.878-76.02-2.28-7.431-3.881-15.122-5.149-22.8-2.15-13.019 1.791-24.818 8.423-35.86 6.928-11.533 15.985-21.353 25.37-30.864 6.252-6.335 12.762-12.415 19.312-18.748zm102.559-124.863c.998-3.434 1.927-6.638 2.855-9.842l1.022.02c0 4.613-.084 9.227.013 13.838.743 35.57 13.307 66.389 37.919 92.024 11.425 11.898 23.689 22.99 35.549 34.472 13.222 12.801 26.492 25.57 36.77 41.004 6.063 9.102 10.307 18.94 10.781 30.02.398 9.29-1.767 18.27-4.223 27.133-5.944 21.463-16.516 40.725-28.653 59.198-4.716 7.179-9.665 14.204-14.647 21.502-6.971-10.368-13.822-20.402-20.513-30.541-15.731-23.835-31.502-47.645-47.03-71.609-10.431-16.098-15.72-34.108-17.01-53.057-1.282-18.821-1.654-37.718-1.938-56.589a784.093 784.093 0 0 1 .583-44.154c.745-18.022 3.918-35.728 8.521-53.415z"/></svg>