<svg xmlns="http://www.w3.org/2000/svg" xmlns:xlink="http://www.w3.org/1999/xlink" xml:space="preserve" id="svg6" version="1.1" viewBox="0 0 3763.5 842.3"><style id="style1">.st0{fill:#039}.st1{fill:#fff}</style><path id="path1" d="M-2.6 0h842v842h-842z" class="st0"/><path id="path2" d="M29.5 32.1h777.7v777.7H29.5z" class="st1"/><path id="path3" d="M40.7 43.3h755.4v755.4H40.7z" class="st0"/><defs id="defs3"><path id="SVGID_1_" d="M-2.6 0h842v842h-842z"/></defs><clipPath id="SVGID_00000080895253921037469690000017358499529264925829_"><use xlink:href="#SVGID_1_" id="use3"/></clipPath><path id="path4" fill="#fc0" fill-rule="evenodd" d="M261.9 690.8c-42.3-58.5-72.2-110.2-79.5-167.7-4.7-36.8 17.4-68 44.1-97.1 16.4-17.9 34.3-35.2 52.9-51.9 83.5-74.9 107.6-125.7 106.9-223 19.1 59.5 23.5 120.4 21.3 181.3-2.2 62.6 4.9 126.8-31.5 185.7-34.6 56.1-72.9 110.7-114.2 172.7" clip-path="url(#SVGID_00000080895253921037469690000017358499529264925829_)" clip-rule="evenodd"/><defs id="defs4"><path id="SVGID_00000005256618145411192790000016777351698490383496_" d="M-2.6 0h842v842h-842z"/></defs><clipPath id="SVGID_00000044159366804929904660000008936759359175150267_"><use xlink:href="#SVGID_00000005256618145411192790000016777351698490383496_" id="use4"/></clipPath><path id="path5" fill="#fc0" fill-rule="evenodd" d="M574.9 690.8c42.3-58.5 72.2-110.2 79.5-167.7 4.7-36.8-17.4-68-44.1-97.1-16.4-17.9-34.2-35.2-52.8-51.9-83.5-74.9-107.6-125.7-106.9-223-19.1 59.5-23.5 120.4-21.3 181.3 2.2 62.6-4.9 126.8 31.5 185.7 34.5 56.1 72.8 110.7 114.1 172.7" clip-path="url(#SVGID_00000044159366804929904660000008936759359175150267_)" clip-rule="evenodd"/><path id="path6" d="M1149 684.5h-22.2l-6.4-19.8h-32.1l-6.4 19.8h-22.1l32.9-89h24.1l32.2 89zm-33.3-35.2-9.7-29.9c-.7-2.2-1.2-4.9-1.5-8h-.5c-.2 2.6-.7 5.2-1.6 7.8l-9.8 30.2 23.1-.1zm58.4 31.8v-19.9c3.7 3 7.6 5.3 11.9 6.8s8.6 2.3 13 2.3c2.6 0 4.8-.2 6.7-.7s3.5-1.1 4.8-1.9 2.2-1.8 2.9-2.9c.6-1.1.9-2.3.9-3.6 0-1.7-.5-3.3-1.5-4.7s-2.4-2.6-4.1-3.8-3.8-2.3-6.2-3.4-5-2.2-7.8-3.3c-7.1-2.9-12.3-6.4-15.8-10.6s-5.2-9.2-5.2-15.1c0-4.6.9-8.6 2.8-11.9s4.5-6.1 7.7-8.2c3.3-2.2 7-3.7 11.3-4.7s8.8-1.5 13.6-1.5c4.7 0 8.9.3 12.5.8s7 1.4 10 2.6V616c-1.5-1-3.2-1.9-4.9-2.7-1.8-.8-3.6-1.4-5.5-2-1.9-.5-3.8-.9-5.6-1.1-1.9-.2-3.6-.4-5.3-.4-2.3 0-4.4.2-6.3.7-1.9.4-3.5 1-4.8 1.8s-2.3 1.7-3 2.8-1.1 2.3-1.1 3.7c0 1.5.4 2.8 1.2 4s1.9 2.3 3.4 3.4 3.3 2.1 5.4 3.1 4.5 2.1 7.1 3.1c3.6 1.5 6.9 3.1 9.7 4.7 2.9 1.7 5.3 3.6 7.4 5.7s3.6 4.5 4.7 7.2 1.6 5.9 1.6 9.5c0 5-1 9.1-2.9 12.5s-4.5 6.1-7.8 8.2-7.1 3.6-11.4 4.5-8.9 1.4-13.8 1.4c-5 0-9.7-.4-14.1-1.2-4.3-.9-8.2-2.2-11.5-3.8zm148.4 3.4h-53.8v-89h20.3v72.8h33.5v16.2zm55-3.4v-19.9c3.7 3 7.6 5.3 11.9 6.8s8.6 2.3 13 2.3c2.6 0 4.8-.2 6.7-.7s3.5-1.1 4.8-1.9 2.2-1.8 2.9-2.9c.6-1.1.9-2.3.9-3.6 0-1.7-.5-3.3-1.5-4.7s-2.4-2.6-4.1-3.8-3.8-2.3-6.2-3.4-5-2.2-7.8-3.3c-7.1-2.9-12.3-6.4-15.8-10.6s-5.2-9.2-5.2-15.1c0-4.6.9-8.6 2.8-11.9s4.5-6.1 7.7-8.2c3.3-2.2 7-3.7 11.3-4.7s8.8-1.5 13.6-1.5c4.7 0 8.9.3 12.5.8 3.6.6 7 1.4 10 2.6V616c-1.5-1-3.2-1.9-4.9-2.7-1.8-.8-3.6-1.4-5.5-2-1.9-.5-3.8-.9-5.6-1.1-1.9-.2-3.6-.4-5.3-.4-2.3 0-4.4.2-6.3.7-1.9.4-3.5 1-4.8 1.8s-2.3 1.7-3 2.8-1.1 2.3-1.1 3.7c0 1.5.4 2.8 1.2 4s1.9 2.3 3.4 3.4 3.3 2.1 5.4 3.1 4.5 2.1 7.1 3.1c3.6 1.5 6.9 3.1 9.7 4.7 2.9 1.7 5.3 3.6 7.4 5.7s3.6 4.5 4.7 7.2 1.6 5.9 1.6 9.5c0 5-1 9.1-2.9 12.5s-4.5 6.1-7.8 8.2-7.1 3.6-11.4 4.5-8.9 1.4-13.8 1.4c-5 0-9.7-.4-14.1-1.2-4.4-.9-8.3-2.2-11.5-3.8zm148.7 3.4H1472v-89h52.1v16.3h-31.8v19.8h29.5v16.3h-29.5v20.4h33.8l.1 16.2zm97.3-3.2c-6.6 3.1-15.2 4.7-25.8 4.7-13.9 0-24.8-4-32.7-12s-11.9-18.7-11.9-32.1c0-14.2 4.5-25.8 13.4-34.6 8.9-8.9 20.5-13.3 34.7-13.3 8.8 0 16.3 1.1 22.3 3.3v19.3c-6-3.6-12.9-5.3-20.7-5.3-8.5 0-15.3 2.6-20.5 7.9s-7.8 12.4-7.8 21.4c0 8.6 2.5 15.5 7.4 20.6s11.5 7.7 19.8 7.7c7.9 0 15.2-1.9 21.8-5.7v18.1zm107.5-35.4c0 26.7-12.6 40.1-37.9 40.1-24.5 0-36.8-13.1-36.8-39.2v-51.4h20.4V647c0 14.4 5.7 21.6 17.1 21.6 11.2 0 16.8-7 16.8-20.9v-52.4h20.4v50.6zm113.5 38.6h-23.4l-14-22.9c-1.1-1.7-2.1-3.3-3-4.7-1-1.4-1.9-2.5-2.9-3.5s-2-1.7-3.1-2.2-2.2-.8-3.5-.8h-5.5v34.1h-20.3v-89h32.3c21.9 0 32.9 8.1 32.9 24.2 0 3.1-.5 6-1.4 8.6-1 2.6-2.3 5-4.1 7.1s-3.9 3.9-6.4 5.5c-2.5 1.5-5.3 2.7-8.3 3.6v.2c1.3.4 2.6 1.1 3.9 2s2.5 2 3.7 3.3c1.2 1.2 2.3 2.6 3.4 4s2 2.8 2.9 4.2l16.8 26.3zm-55.5-74v24.8h8.8c4.4 0 7.9-1.2 10.5-3.7 2.7-2.5 4-5.6 4-9.4 0-7.8-4.7-11.7-14.2-11.7h-9.1zm102.3 74H1871v-89h20.3v89zm102.1-72.7h-25.8v72.7h-20.4v-72.7h-25.6v-16.3h71.8v16.3zm50.6 72.7h-20.3v-89h20.3v89zm92.8 0h-54.2v-89h52.1v16.3h-31.8v19.8h29.5v16.3h-29.5v20.4h33.8l.1 16.2zm28.4-3.4v-19.9c3.7 3 7.6 5.3 11.9 6.8s8.6 2.3 13 2.3c2.6 0 4.8-.2 6.7-.7s3.5-1.1 4.8-1.9 2.2-1.8 2.9-2.9c.6-1.1.9-2.3.9-3.6 0-1.7-.5-3.3-1.5-4.7s-2.4-2.6-4.1-3.8-3.8-2.3-6.2-3.4-5-2.2-7.8-3.3c-7.1-2.9-12.3-6.4-15.8-10.6s-5.2-9.2-5.2-15.1c0-4.6.9-8.6 2.8-11.9s4.5-6.1 7.7-8.2c3.3-2.2 7-3.7 11.3-4.7s8.8-1.5 13.6-1.5c4.7 0 8.9.3 12.5.8s7 1.4 10 2.6V616c-1.5-1-3.2-1.9-4.9-2.7-1.8-.8-3.6-1.4-5.5-2-1.9-.5-3.8-.9-5.6-1.1-1.9-.2-3.6-.4-5.3-.4-2.3 0-4.4.2-6.3.7-1.9.4-3.5 1-4.8 1.8s-2.3 1.7-3 2.8-1.1 2.3-1.1 3.7c0 1.5.4 2.8 1.2 4s1.9 2.3 3.4 3.4 3.3 2.1 5.4 3.1 4.5 2.1 7.1 3.1c3.6 1.5 6.9 3.1 9.7 4.7 2.9 1.7 5.3 3.6 7.4 5.7s3.6 4.5 4.7 7.2 1.6 5.9 1.6 9.5c0 5-1 9.1-2.9 12.5s-4.5 6.1-7.8 8.2-7.1 3.6-11.4 4.5-8.9 1.4-13.8 1.4c-5 0-9.7-.4-14.1-1.2-4.4-.9-8.3-2.2-11.5-3.8zm188.2.2c-6.6 3.1-15.2 4.7-25.8 4.7-13.9 0-24.8-4-32.7-12s-11.9-18.7-11.9-32.1c0-14.2 4.5-25.8 13.4-34.6 8.9-8.9 20.5-13.3 34.7-13.3 8.8 0 16.3 1.1 22.3 3.3v19.3c-6-3.6-12.9-5.3-20.7-5.3-8.5 0-15.3 2.6-20.5 7.9s-7.8 12.4-7.8 21.4c0 8.6 2.5 15.5 7.4 20.6s11.5 7.7 19.8 7.7c7.9 0 15.2-1.9 21.8-5.7v18.1zm74.3 4.7c-12.9 0-23.5-4.1-31.6-12.4s-12.2-19.1-12.2-32.4c0-14.1 4.1-25.5 12.4-34.1 8.3-8.7 19.2-13 32.9-13 12.9 0 23.3 4.2 31.3 12.5s11.9 19.3 11.9 32.9c0 14-4.1 25.3-12.4 33.8-8.3 8.4-19.1 12.7-32.3 12.7zm.8-74.8c-7.1 0-12.8 2.6-17 7.9s-6.3 12.3-6.3 20.9c0 8.8 2.1 15.8 6.3 20.9s9.7 7.7 16.5 7.7c7 0 12.6-2.5 16.7-7.5s6.2-11.9 6.2-20.8c0-9.2-2-16.4-6-21.5-4-5-9.4-7.6-16.4-7.6zm82.6 74.8c-3.3 0-6-1-8.2-3s-3.3-4.4-3.3-7.3c0-3 1.1-5.4 3.4-7.3 2.2-1.9 5-2.9 8.4-2.9s6.2 1 8.3 2.9c2.2 1.9 3.2 4.4 3.2 7.3 0 3-1.1 5.5-3.3 7.4s-4.9 2.9-8.5 2.9zm66.9-17.2-9.3 31.4h-15.5l6.4-31.4h18.4zm122.7 15.7h-53.8v-89h20.3v72.8h33.5v16.2zm89.1-72.7H2764v72.7h-20.4v-72.7H2718v-16.3h71.8v16.3zm34 72.7v-89h32c32.1 0 48.1 14.5 48.1 43.4 0 13.9-4.4 24.9-13.1 33.2-8.8 8.3-20.4 12.4-35 12.4h-32zm20.4-72.7v56.4h10.1c8.8 0 15.7-2.6 20.8-7.8 5-5.2 7.5-12.3 7.5-21.3 0-8.5-2.5-15.2-7.5-20-5-4.9-12-7.3-20.9-7.3h-10zm97.2 74.2c-3.3 0-6-1-8.2-3s-3.3-4.4-3.3-7.3c0-3 1.1-5.4 3.4-7.3 2.2-1.9 5-2.9 8.4-2.9s6.2 1 8.3 2.9c2.2 1.9 3.2 4.4 3.2 7.3 0 3-1.1 5.5-3.3 7.4s-4.9 2.9-8.5 2.9zM1135.7 412.6c0-1.9-.2-3.4-.6-4.4s-1.1-1.8-1.9-2.6c-.9-.8-1.5-1.5-1.8-2s-.5-1.5-.5-2.8c.2-3.4 3.2-5.1 9-5.1.8 0 2 0 3.8.1 1.7.1 3 .1 3.9.1h7.2c3.2 0 5.5.3 7.1.9 1.5.6 2.4 1.9 2.5 4 0 1.5-.2 2.6-.6 3.3s-1.1 1.4-2 2.1c-.9.8-1.6 1.5-2 2.2s-.7 1.9-.7 3.6v43.5c0 8.2-1.7 14.7-5 19.6s-8 8.3-14.1 10.3c-6 2-13.4 3-22.1 3-8.9-.1-16.4-1.2-22.6-3.2-6.2-2.1-11-5.6-14.4-10.6s-5.1-11.6-5.1-19.8l1.4-37.3c0-1.5-.4-2.8-1.3-3.7s-2.2-1.9-3.9-2.9-3-1.8-3.7-2.4-1.1-1.5-1.1-2.8c0-2.8 2.5-5.1 7.4-7.1s10.7-3 17.2-3c5.9.5 8.9 6.6 8.9 18.4l-1.6 40.7c0 6.7 1.6 11.6 4.8 14.7s8 4.6 14.5 4.6c6.7-.3 11.3-2.1 13.8-5.4s3.7-8.6 3.7-16v-40h-.2zm100 52.6c.8-1.9 1.2-4.5 1.2-7.6 0-6.1-2-10.7-5.9-13.8-2.1-1.6-7.8-3.1-17.2-4.4-9.3-1.3-16-2.4-19.9-3.1-3.9-.8-8-2.7-12.2-5.7s-6.3-7.5-6.3-13.6c.3-5.6 3.3-10.5 8.9-14.8s12.3-6.6 19.9-6.8c6.8 0 13.6.6 20.3 1.7 6.7 1.2 11.5 1.8 14.1 2 1.9 0 3.3-.2 4.3-.5s2-.8 2.8-1.5c.9-.7 1.6-1.1 2.3-1.4 1.6 0 3.1.7 4.3 2.1 1.3 1.4 2.1 3.3 2.4 5.7 0 7.2-5 10.8-14.9 10.8-2-.3-4.9-1-8.6-1.9-3.7-1-7-1.7-9.8-2.2s-6-.7-9.5-.7c-4 0-7.4.7-10.2 2.2s-4.4 3.7-4.7 6.6c0 2.9 1.7 4.7 5.2 5.5s10.5 1.9 21 3.4c10.5 1.4 18.1 3.2 22.6 5.1 4.7 2.1 8.1 5.2 10.3 9.4 2.1 4.2 3.2 8.9 3.2 14.1 0 6.1-1.2 11.3-3.5 15.6-5.8 11.7-20.3 17.5-43.5 17.5-8.6-.1-16.3-1.9-23-5.1-6.7-3.3-10.1-8.3-10.1-15.1.1-3.3 1.3-6.2 3.4-8.5 2.2-2.3 5.2-3.5 9.1-3.5 2.8.1 5.1 1 6.9 2.5 1.8 1.6 2.6 3.4 2.6 5.5 0 1.8-.5 3.4-1.6 4.8 0 1.8 1.7 3.3 5.2 4.6 3.4 1.3 7 1.9 10.6 1.9 10.7.1 17.3-3.5 20.3-10.8zm13.5-86.7c-.9 0-3.3-.7-7.2-2-4-1.3-8.6-2.4-13.8-3.3-5.3-.9-12-1.3-20.3-1.3-7.5 0-13.8.5-19 1.4-5.2 1-9.9 2.1-14.1 3.4s-6.9 2-8 2c-1.2 0-2.2-.3-2.8-.9-.8-.6-1.2-1.6-1.2-3.2 0-2.2.7-4.5 2.2-7 1.4-2.5 3.2-4.3 5.3-5.5 4.1-2.4 15.8-3.7 35.2-3.7 17.4 0 29.8.9 37.2 2.8 2.2.5 4.3 2.2 6.1 4.9 1.8 2.8 2.8 5.4 2.8 8-.3 2.3-1 3.8-2.4 4.4zm110.5 65.8v11.2c0 12.2-3.4 20.7-10.3 25.7s-17.1 7.4-30.6 7.4c-13.6-.1-24.1-2.7-31.4-7.9-7.3-5.1-11-13.8-11-26l1.4-37.3c0-1.5-.4-2.8-1.3-3.7s-2.2-1.9-3.9-2.9-3-1.8-3.7-2.4-1.1-1.5-1.1-2.8c0-2.8 2.5-5.1 7.4-7.1s10.7-3 17.2-3c5.9.5 8.9 6.6 8.9 18.4l-1.6 40.7c0 6.7 1.6 11.6 4.7 14.7s8 4.6 14.6 4.6c6.7-.2 11.3-2 13.7-5.3 2.5-3.3 3.7-8.7 3.7-16.1v-3.4h.1l-2.4.3c-1.9.2-3.9.3-6 .3-3.1 0-6.2-.3-9.3-.9-7.8-1.6-11.9-6-12.1-13.1 0-2.8.9-5.2 2.7-7.2s4.5-3 8-3c1.1.2 1.7 1.4 1.9 3.6s.7 4 1.6 5.4 3 2.2 6.5 2.5c2.3 0 4.5-.2 6.5-.5 1.7-.3 2.6-.4 2.6-.4v-23.9c0-1.9-.2-3.4-.6-4.4s-1.1-1.8-1.9-2.6c-.9-.8-1.5-1.5-1.8-2s-.5-1.5-.5-2.8c.2-3.4 3.2-5.1 9.1-5.1.8 0 2 0 3.7.1s3 .1 3.9.1h7.2c3.1 0 5.5.3 7 .9 1.6.6 2.4 1.9 2.5 4 0 1.5-.2 2.6-.6 3.3s-1.1 1.4-2 2.1c-.9.8-1.6 1.5-2 2.2s-.7 1.9-.7 3.6v19.6c.1 0 1.4-.8 3.9-2.5 2.6-1.7 4.6-3.4 6.1-5.1.3-.3.6-.4.9-.4.8 0 1.5.8 2 2.3.5 1.6.8 3.3.8 5.3 0 2.1-.3 3.6-.9 4.4-1.2 2.1-3.2 3.9-6.1 5.5-2.9 1.9-5.2 3-6.8 3.6zm-19.5-86.7c1.2 2.7 5.9 4.1 13.9 4.1 8.3 0 14.9-1.1 20.1-3.4 2.5-1.2 4.7-2.4 6.4-3.6s3.5-2.5 5.3-4 3.2-2.5 4.1-3.2c1-.7 1.9-1 2.7-1 1.1.5 1.6 3.4 1.6 8.8 0 3.4-.4 5.7-1.2 6.9-1 1.6-3.4 3.4-7 5.4-3.7 2-8.5 3.7-14.4 5.2-5.9 1.4-12.6 2.2-20.2 2.2-3 0-5.2-.1-6.8-.2-7.5-.5-14.7-2.2-21.6-5.2-6.9-2.9-10.3-6.9-10.3-11.9 0-.5.2-1.3.5-2.5.8-2.9 3.4-5.3 7.8-7.1s8.8-2.7 13.2-2.7c3.2 0 5.4.5 6.5 1.6.8.8 1.1 1.6 1.1 2.5 0 .6-.3 1.8-.9 3.5-.5 1.6-.8 3.2-.8 4.6zm47.6 60c0-1.5-.4-2.8-1.3-3.7s-2.2-1.9-3.9-2.9-3-1.8-3.7-2.4-1.1-1.5-1.1-2.8c0-2.8 2.5-5.1 7.4-7.1s10.7-3 17.2-3c5.9.5 8.9 6.6 8.9 18.4v9l-2.1 9.7c0-.4.7-2.3 2.2-5.6s3.5-7 6.1-11.2c2.6-4.1 5.5-7.8 8.7-10.9 6.5-6.4 13.8-9.7 21.9-9.7 2.2 0 3.9.1 5.1.3 12.6 1.2 18.9 11.5 18.9 31v45.1c0 1.8.2 3 .6 3.8s1 1.4 1.9 2 1.6 1.2 2 1.9c.5.7.7 1.9.8 3.6 0 2-.8 3.3-2.3 3.9s-3.9.9-7.2.9h-7.2c-.9 0-2.2 0-3.9.1s-3 .1-3.7.1c-3 0-5.2-.3-6.8-1-1.5-.7-2.3-2-2.3-4 0-1.4.2-2.4.6-3s1-1.3 1.8-2 1.4-1.6 1.8-2.5.6-2.4.6-4.3V428c0-5.2-.5-9-1.6-11.5s-3.3-3.7-6.6-3.7c-6.7 1-14 10.1-21.9 27.1-5.1 11.2-7.7 19.6-7.7 25.3v6.4c0 1.8.2 3.1.6 3.9s1.1 1.4 1.9 2c.9.6 1.5 1.2 2 1.9s.7 1.9.8 3.5c0 2-.8 3.3-2.3 3.9s-3.9.9-7.2.9h-7.2c-.9 0-2.2 0-3.9.1s-3 .1-3.7.1c-6.1 0-9.1-1.7-9.1-5.1 0-1.4.2-2.4.6-3s1-1.3 1.8-2 1.4-1.6 1.8-2.5.6-2.4.6-4.3l.1-53.4zm163.8 10.6c-7.2.2-13.4 4.1-18.6 11.5-5.7 8.3-8.6 17.7-8.6 28.3v3.9c0 1.8.2 3.1.6 3.9s1.1 1.4 1.9 2c.9.6 1.5 1.2 2 1.9s.7 1.9.8 3.5c0 2-.8 3.3-2.3 3.9-1.6.6-4 .9-7.2.9h-7.2c-.9 0-2.2 0-3.9.1s-3 .1-3.8.1c-6.1 0-9.1-1.7-9.1-5.1 0-1.4.2-2.4.6-3s1-1.3 1.8-2 1.4-1.6 1.8-2.5.6-2.4.6-4.3v-53.8c0-1.5-.4-2.8-1.3-3.7s-2.2-1.9-3.9-2.9-3-1.8-3.7-2.4-1.1-1.5-1.1-2.8c0-1.8 1.2-3.5 3.6-5 2.4-1.6 5.5-2.8 9.4-3.7s8-1.4 12.1-1.4c5.9.5 8.9 6.6 8.9 18.4v8.5l-3.7 16.4c.4-1.6 1.5-4 3.3-7.3s4.7-6.4 8.6-9.3c5-3.7 11.1-5.6 18.4-5.6-3.2-.1-6-1.1-8.4-2.9s-3.7-4.1-3.7-6.8c0-4.3 2.2-7.4 6.7-9.2s9.9-2.7 16.3-2.7c15.8 0 23.8 3.9 24.2 11.7 0 4.1-1.6 6.9-4.9 8.5s-6.1 2.4-8.5 2.4c.7 0 2 .5 3.9 1.6s3.5 2.8 4.9 5.1c2.2 3.8 3.3 9.3 3.3 16.5v30.8c0 1.8.2 3 .6 3.8s1 1.4 1.9 2 1.6 1.2 2 1.9c.5.7.7 1.9.8 3.6 0 2-.8 3.3-2.3 3.9-1.6.6-4 .9-7.2.9h-7.2c-.9 0-2.2 0-3.9.1s-3 .1-3.7.1c-6.1 0-9.1-1.7-9.1-5.1 0-1.4.2-2.4.6-3s1-1.3 1.8-2 1.4-1.6 1.8-2.5.6-2.4.6-4.3v-30.4c0-4.9-.8-8.2-2.4-10.1-1.7-1.5-4.4-2.4-8.1-2.4zm114.8-1.4c0-5.3-1.4-9.6-4.1-12.9s-8.3-5-16.7-5c-6.2.2-10.2.9-11.8 2.3-1.7 1.3-3.7 3.7-6.2 7.1s-5.5 5.3-9.1 5.8c-3.1 0-5.6-.9-7.5-2.7-1.8-1.8-2.8-4-2.8-6.5 0-1.9.5-3.6 1.4-5.3 2.8-4.9 7.5-8.5 14.1-10.8s13.9-3.5 21.7-3.5c29.5 0 44.2 9.9 44.2 29.7v39.1c0 4.5.3 7.8 1 10.1.3.8 1 1.6 2.2 2.4 1.1.8 2 1.4 2.4 2 .5.6.7 1.6.7 3.2 0 2.4-1.1 4.1-3.2 5-2.2 1-6.3 1.4-12.4 1.4-3.8 0-6.6-.3-8.6-1s-3.4-1.9-4.1-3.6c-.8-1.7-1.2-4.3-1.2-7.8v-36.1c-2 0-6.1.5-12.4 1.4-6.2.9-11.7 2.4-16.2 4.4-6.2 2.7-9.3 7.6-9.3 14.5 0 3.3.8 6.2 2.4 8.7s3.6 3.7 5.9 3.7c2.2 0 4-.6 5.4-1.7s2.5-1.8 3.3-2c1.6-.3 2.6-.4 3-.4 2.2 0 4 .7 5.2 2.1s1.8 3.1 1.8 5.3c0 1.5-.2 2.8-.7 3.9-1.2 2.8-3.7 4.9-7.6 6.5s-8.3 2.4-13.1 2.5c-5.4 0-10.3-1-14.7-2.9s-7.9-4.9-10.5-8.8c-2.6-4-3.9-8.8-3.9-14.5 0-2.1.1-3.8.2-5.1 1.1-7.5 4.2-13.1 9.4-16.8s12.1-6.8 20.9-9.2c5.2-1.5 10.8-2.6 17-3.3 6-.8 10.7-1.2 13.9-1.2zm1.8-69.2c1.2 2.7 5.9 4.1 13.9 4.1 8.3 0 14.9-1.1 20.1-3.4 2.5-1.2 4.7-2.4 6.4-3.6s3.5-2.5 5.3-4 3.2-2.5 4.1-3.2c1-.7 1.9-1 2.7-1 1.1.5 1.6 3.4 1.6 8.8 0 3.4-.4 5.7-1.2 6.9-1 1.6-3.4 3.4-7 5.4-3.7 2-8.5 3.7-14.4 5.2-5.9 1.4-12.6 2.2-20.2 2.2-3 0-5.2-.1-6.8-.2-7.5-.5-14.7-2.2-21.6-5.2-6.9-2.9-10.3-6.9-10.3-11.9 0-.5.2-1.3.5-2.5.8-2.9 3.4-5.3 7.8-7.1s8.8-2.7 13.2-2.7c3.2 0 5.4.5 6.5 1.6.8.8 1.1 1.6 1.1 2.5 0 .6-.3 1.8-.9 3.5-.5 1.6-.8 3.2-.8 4.6zm124.9 114.3c0 1.8.2 3 .6 3.8s1 1.4 1.9 2 1.6 1.2 2.1 1.9.8 1.9.8 3.6c0 2-.8 3.3-2.3 3.9-1.6.6-4 .9-7.2.9h-7.2c-.8 0-2.1 0-3.9.1s-3 .1-3.8.1c-3 0-5.2-.3-6.8-1-1.5-.7-2.3-2-2.3-4 0-1.4.2-2.4.6-3s1-1.3 1.8-2 1.4-1.6 1.8-2.5.6-2.4.6-4.3v-43.3c0-4.4-.3-7.8-.9-10.4-.6-2.5-2.2-4.7-4.9-6.4s-6.9-2.6-12.8-2.8c-3.8 0-7.2.4-10.2 1.3s-5.2 2-6.8 3.3-2.3 2.6-2.3 3.8c0 .7.3 1.3 1 1.8s1.9 1.3 3.7 2.3 3.2 2 4.1 2.8c.9.9 1.4 1.9 1.4 3 0 1.3-1.2 3-3.6 5.1s-4.1 3.6-5 4.7-1.4 2.9-1.4 5.4v29.7c0 1.8.2 3.1.6 3.9s1.1 1.4 1.9 2c.9.6 1.5 1.2 2 1.9s.7 1.9.8 3.5c0 2-.8 3.3-2.3 3.9s-3.9.9-7.2.9h-7.2c-.9 0-2.2 0-3.9.1s-3 .1-3.8.1c-3 0-5.2-.3-6.8-1-1.5-.7-2.3-2-2.3-4 0-1.4.2-2.4.6-3s1-1.3 1.8-2 1.4-1.6 1.8-2.5.6-2.4.6-4.3v-26.9c0-3.4.7-6 2-7.9 1.3-1.8 3-3.6 5.1-5.3s3.1-3 3.1-3.9-1.3-2.1-4-3.5-4.6-2.6-5.7-3.4-1.7-2.1-1.7-4c0-4.8 4.6-9.9 13.7-15.2 7.8-4.5 17.9-6.7 30.2-6.7 11.7 0 21.1 2 28 6 6 3.6 9.7 7.4 11.2 11.3s2.2 8.8 2.2 14.6v45.6h.3zm29.1-54.3c0-1.5-.4-2.8-1.3-3.7s-2.2-1.9-3.9-2.9-3-1.8-3.7-2.4-1.1-1.5-1.1-2.8c0-2.8 2.5-5.1 7.4-7.1s10.7-3 17.2-3c5.9.5 8.9 6.6 8.9 18.4v9l-2.1 9.7c0-.4.7-2.3 2.2-5.6s3.5-7 6.1-11.2c2.6-4.1 5.5-7.8 8.7-10.9 6.5-6.4 13.8-9.7 21.9-9.7 2.2 0 3.9.1 5.1.3 12.6 1.2 18.9 11.5 18.9 31v45.1c0 1.8.2 3 .6 3.8s1 1.4 1.9 2 1.6 1.2 2 1.9c.5.7.7 1.9.8 3.6 0 2-.8 3.3-2.3 3.9s-3.9.9-7.2.9h-7.2c-.9 0-2.2 0-3.9.1s-3 .1-3.7.1c-3 0-5.2-.3-6.8-1-1.5-.7-2.3-2-2.3-4 0-1.4.2-2.4.6-3s1-1.3 1.8-2 1.4-1.6 1.8-2.5.6-2.4.6-4.3V428c0-5.2-.5-9-1.6-11.5s-3.3-3.7-6.6-3.7c-6.7 1-14 10.1-21.9 27.1-5.1 11.2-7.7 19.6-7.7 25.3v6.4c0 1.8.2 3.1.6 3.9s1.1 1.4 1.9 2c.9.6 1.5 1.2 2 1.9s.7 1.9.8 3.5c0 2-.8 3.3-2.3 3.9s-3.9.9-7.2.9h-7.2c-.9 0-2.2 0-3.9.1s-3 .1-3.7.1c-6.1 0-9.1-1.7-9.1-5.1 0-1.4.2-2.4.6-3s1-1.3 1.8-2 1.4-1.6 1.8-2.5.6-2.4.6-4.3l.1-53.4zm160.1 47.6c.8-1.9 1.2-4.5 1.2-7.6 0-6.1-2-10.7-5.9-13.8-2.1-1.6-7.8-3.1-17.2-4.4-9.3-1.3-16-2.4-19.9-3.1-3.9-.8-8-2.7-12.2-5.7s-6.3-7.5-6.3-13.6c.3-5.6 3.3-10.5 8.9-14.8s12.3-6.6 19.9-6.8c6.8 0 13.6.6 20.3 1.7 6.7 1.2 11.5 1.8 14.1 2 1.9 0 3.3-.2 4.3-.5s2-.8 2.8-1.5c.9-.7 1.6-1.1 2.3-1.4 1.6 0 3.1.7 4.3 2.1 1.3 1.4 2.1 3.3 2.4 5.7 0 7.2-5 10.8-14.9 10.8-2-.3-4.9-1-8.6-1.9-3.7-1-7-1.7-9.8-2.2s-6-.7-9.5-.7c-4 0-7.4.7-10.2 2.2s-4.4 3.7-4.7 6.6c0 2.9 1.7 4.7 5.2 5.5s10.5 1.9 21 3.4c10.5 1.4 18.1 3.2 22.6 5.1 4.7 2.1 8.1 5.2 10.3 9.4 2.1 4.2 3.2 8.9 3.2 14.1 0 6.1-1.2 11.3-3.5 15.6-5.8 11.7-20.3 17.5-43.5 17.5-8.6-.1-16.3-1.9-23-5.1-6.7-3.3-10.1-8.3-10.1-15.1.1-3.3 1.3-6.2 3.4-8.5 2.2-2.3 5.2-3.5 9.1-3.5 2.8.1 5.1 1 6.9 2.5 1.8 1.6 2.6 3.4 2.6 5.5 0 1.8-.5 3.4-1.6 4.8 0 1.8 1.7 3.3 5.2 4.6 3.4 1.3 7 1.9 10.6 1.9 10.7.1 17.3-3.5 20.3-10.8zm-1.6-107.6c1.2 2.7 5.9 4.1 13.9 4.1 8.3 0 14.9-1.1 20.1-3.4 2.5-1.2 4.7-2.4 6.4-3.6s3.5-2.5 5.3-4 3.2-2.5 4.1-3.2c1-.7 1.9-1 2.7-1 1.1.5 1.6 3.4 1.6 8.8 0 3.4-.4 5.7-1.2 6.9-1 1.6-3.4 3.4-7 5.4-3.7 2-8.5 3.7-14.4 5.2-5.9 1.4-12.6 2.2-20.2 2.2-3 0-5.2-.1-6.8-.2-7.5-.5-14.7-2.2-21.6-5.2-6.9-2.9-10.3-6.9-10.3-11.9 0-.5.2-1.3.5-2.5.8-2.9 3.4-5.3 7.8-7.1s8.8-2.7 13.2-2.7c3.2 0 5.4.5 6.5 1.6.8.8 1.1 1.6 1.1 2.5 0 .6-.3 1.8-.9 3.5-.5 1.6-.8 3.2-.8 4.6zm150.3 95.2c0 14-2.5 23.4-7.6 28.3s-10.7 7.4-16.8 7.4c-5.9 0-10.8-2.3-14.6-6.9s-6.7-10-8.7-16.2-3.3-11.8-3.9-16.7c-.7-5-1-8.1-1-9.5 0 3.7-.5 9.3-1.5 16.6s-3.6 14.6-7.8 21.8-10.4 10.8-18.6 10.8c-7.3 0-13.4-3.1-18.2-9.3s-7.3-15.3-7.4-27.3c0-4.6.3-10.5.9-17.6s.9-12.9.9-17.2c-.2-1.3-.7-2.4-1.5-3.3-.9-.9-2-1.8-3.6-2.8-1.5-1-2.6-1.8-3.3-2.5-.6-.7-1-1.7-1-2.9 0-2.9 2.5-5.3 7.4-7.1s10.5-2.8 16.8-2.8c6.4.3 9.5 5.6 9.5 15.8 0 4.3-.3 10.5-1 18.3-.7 7.9-1.1 14.2-1.3 19 0 11.4 2.1 17 6.2 17 4.8 0 8.6-10.6 11.4-31.7 1.2-8.8 1.9-16.8 1.9-24.2 0-2-.7-3.7-2.2-5.1s-2.2-2.6-2.2-3.7c0-2.4 1.2-3.8 3.6-4.4s5.7-.9 9.9-.9 7.5.3 9.9.9 3.5 2.1 3.5 4.4c0 1.2-.7 2.5-2 3.8s-2 3-2 4.9c.3 8.3 1.1 16.2 2.3 23.7 1.4 8.8 3.1 16.3 5.3 22.6s4.4 9.5 6.8 9.6c4.2 0 6.2-4.4 6.2-13.1v-40.2c0-1.9-.2-3.4-.6-4.4s-1.1-1.8-1.9-2.6-1.5-1.5-1.8-2-.5-1.5-.5-2.8c.2-3.4 3.2-5.1 9.1-5.1.8 0 2 0 3.7.1s3 .1 3.9.1h7.2c3.1 0 5.5.3 7 .9 1.6.6 2.4 1.9 2.5 4 0 1.5-.2 2.6-.6 3.3s-1.1 1.4-2 2.1c-.9.8-1.6 1.5-2 2.2s-.7 1.9-.7 3.6v41.1h.4zm83.3-34.7c0-2.7-.5-4.6-1.4-5.6s-2.4-2.3-4.4-3.8-3.1-2.9-3.1-4.2c.1-2 2.5-4 7-6 4.6-2 9.2-3 13.9-3 7.4 1 11.1 9.5 11.1 25.3v31.7c0 11.8-3.3 20.8-9.8 26.9s-18.1 9.2-34.7 9.2c-12.8-.2-22.7-2.8-29.5-7.8s-10.3-12.1-10.3-21.4c.3-5.7 2.1-10.3 5.5-13.8 3.4-3.4 6.9-5.9 10.6-7.2 3.7-1.4 6.1-2.1 7.4-2.1-3 0-7-.9-12-2.6s-8.3-5-10.1-9.9c-.6-1.6-.9-3.4-.9-5.5 0-3.7 1.1-7.3 3.2-10.7s4.7-6.1 7.8-7.9c4.2-2.7 9.4-4.1 15.8-4.1 6.9 0 11.9 1.6 14.9 4.8 2.2 2.1 3.2 4.9 3.2 8.5 0 4.1-1.9 6.2-5.8 6.5-1.2 0-2.1-.1-2.7-.4s-1.4-.9-2.4-1.7-2-1.4-2.8-1.7c-.8-.4-2-.5-3.5-.5-4 .3-6 3.3-6 9 .1 2.5 1.5 4.6 4.1 6.4 2.7 1.7 5.6 2.8 8.9 3.1 2.8 0 5.8-.4 8.9-1.2s5.1-1.2 6-1.2c.3 0 1 .2 1.9.4 2 1 3 2.7 3 5.1 0 1.1-.4 2.2-1.1 3.2-.3.3-2.3.9-6 1.9-3.8.9-7.4 2.2-10.9 3.7s-6.6 3.8-9.3 6.9-4 7-4 11.9c0 9.9 6.4 14.8 19.1 14.8 5.7-.1 9.9-1.3 12.6-3.5s4.3-4.9 4.9-8 .9-7.3.9-12.4v-33.1zm9.1-52.3c.1 1.4 1.3 2.3 3.6 2.7s3.7 1.1 4 1.9c.3.9.5 1.6.5 2.1 0 4-4.4 6-13.3 6-5 0-9-1.2-12.1-3.7s-4.6-5.8-4.6-10.1c.5-3.3 1.8-5.7 4-7.5 2.2-1.7 4.5-2.9 7-3.6s6.5-1.5 11.8-2.6c8.1-1.6 12.1-4.1 12.1-7.4v-1c0-1 .6-1.6 1.9-1.6 1.8 0 3.2.7 4.3 2.2 1 1.5 1.5 3.2 1.5 5.1 0 .8-.2 1.6-.5 2.5-1 2.7-2.5 4.8-4.5 6.3-2 1.6-5.1 2.8-9.3 3.5-2.5.4-4.2 1-5.1 1.7-.9 1.1-1.3 2.1-1.3 3.5zm132.8 97.9v-51.1c0-1.9-.2-3.4-.6-4.4s-1.1-1.8-1.9-2.6-1.5-1.5-1.8-2-.5-1.5-.5-2.8c0-3.4 3-5.1 9-5.1.8 0 2 0 3.7.1s3 .1 3.9.1h7.2c3.3 0 5.7.3 7.2.9s2.3 1.9 2.3 4c0 1.7-.3 2.9-.7 3.5-.5.7-1.1 1.3-2 1.9s-1.5 1.2-2 2c-.4.7-.6 2-.6 3.9V465c0 1.9.5 3.3 1.5 4.2s2.5 1.8 4.5 2.6 3.4 1.6 4.4 2.3c1 .8 1.4 1.9 1.4 3.5-.3 2.2-2.7 4.6-7.3 7.1s-9.9 3.7-16 3.7c-3.5-.2-6.4-2.5-8.5-6.7s-3.2-10.2-3.2-18zm75.4-22.9c-3.3 1.9-4.9 6.2-4.9 12.7 0 6.1 1.2 10.9 3.5 14.5 3.5 4.6 8.5 6.9 14.9 6.9 6.7 0 11.9-2.8 15.8-8.3 3-4.8 4.4-12.6 4.4-23.5 0-13.6-2.7-23.2-8.1-28.8-3.8-3.7-9-5.5-15.6-5.5-5.6 0-9.8 1.2-12.6 3.7-.8.6-1.8 1.6-3.1 3s-2.4 2.4-3.3 3.1-2.2 1.4-3.9 2.1c-.8.3-2 .4-3.7.4-5.3 0-7.9-3.2-7.9-9.7 1.2-5 5.1-9 11.7-11.8 6.6-2.9 14.7-4.3 24.1-4.3 15 0 26.3 3.8 33.9 11.4s11.5 17.9 11.7 31c0 16.5-3.3 29.1-10 37.7-6.6 8.7-17.5 13-32.6 13.1-12.8 0-23-2.9-30.8-8.6-7.8-5.8-11.8-14.2-12-25.4 0-10.1 2.8-17.5 8.3-22.3s12.2-7.2 19.9-7.2c1.2 0 3.1.2 5.6.4 3.5.5 6.3 1.9 8.3 4 2.1 2.2 3.1 4.5 3.1 7 0 2-.6 3.6-1.9 4.8-1.7 1.7-3.3 2.5-4.7 2.5-1.1 0-2.4-.7-4.1-2s-3-2-4-2c-.6.5-1.3.7-2 1.1zm78.6 22.9v-51.1c0-1.9-.2-3.4-.6-4.4s-1.1-1.8-1.9-2.6-1.5-1.5-1.8-2-.5-1.5-.5-2.8c0-3.4 3-5.1 9-5.1.8 0 2 0 3.7.1s3 .1 3.9.1h7.2c3.3 0 5.7.3 7.2.9s2.3 1.9 2.3 4c0 1.7-.3 2.9-.7 3.5-.5.7-1.1 1.3-2 1.9s-1.5 1.2-2 2c-.4.7-.6 2-.6 3.9V465c0 1.9.5 3.3 1.5 4.2s2.5 1.8 4.5 2.6 3.4 1.6 4.4 2.3c1 .8 1.4 1.9 1.4 3.5-.3 2.2-2.7 4.6-7.3 7.1s-9.9 3.7-16 3.7c-3.5-.2-6.4-2.5-8.5-6.7s-3.2-10.2-3.2-18zm75.4-22.9c-3.3 1.9-4.9 6.2-4.9 12.7 0 6.1 1.2 10.9 3.5 14.5 3.5 4.6 8.5 6.9 14.9 6.9 6.7 0 11.9-2.8 15.8-8.3 3-4.8 4.4-12.6 4.4-23.5 0-13.6-2.7-23.2-8.1-28.8-3.8-3.7-9-5.5-15.6-5.5-5.6 0-9.8 1.2-12.6 3.7-.8.6-1.8 1.6-3.1 3s-2.4 2.4-3.3 3.1-2.2 1.4-3.9 2.1c-.8.3-2 .4-3.7.4-5.3 0-7.9-3.2-7.9-9.7 1.2-5 5.1-9 11.7-11.8 6.6-2.9 14.7-4.3 24.1-4.3 15 0 26.3 3.8 33.9 11.4s11.5 17.9 11.7 31c0 16.5-3.3 29.1-10 37.7-6.6 8.7-17.5 13-32.6 13.1-12.8 0-23-2.9-30.8-8.6-7.8-5.8-11.8-14.2-12-25.4 0-10.1 2.8-17.5 8.3-22.3s12.2-7.2 19.9-7.2c1.2 0 3.1.2 5.6.4 3.5.5 6.3 1.9 8.3 4 2.1 2.2 3.1 4.5 3.1 7 0 2-.6 3.6-1.9 4.8-1.7 1.7-3.3 2.5-4.7 2.5-1.1 0-2.4-.7-4.1-2s-3-2-4-2c-.6.5-1.3.7-2 1.1zm133.3-43.4c.8-.1 1.9-.5 3.2-1.1s2.3-1.4 2.9-2.6c.6-1.1.9-3.2.9-6.5.2-2.3 4.3-3.4 12.1-3.4 3.5 0 6.7.3 9.5 1s4.4 1.6 4.7 2.8c0 5.4-1.5 9.5-4.4 12.4-4.4 4.3-8.4 6.5-12.1 6.5.4 0 1.5 1.1 3.3 3.2s3 4.4 3.7 6.9c1.4 4.7 2.1 9.8 2.1 15.2V464c0 4.6.3 8 .9 10.1.3.9 1 1.8 2.2 2.6s2 1.5 2.5 2 .7 1.5.7 3c0 2.4-1.1 4.1-3.2 5-2.2 1-6.3 1.4-12.3 1.4-5.6 0-9.4-.8-11.2-2.4s-2.8-5-2.8-10v-36.1c-2 0-6.2.5-12.4 1.4s-11.6 2.4-16.2 4.4c-6.2 2.8-9.3 7.6-9.3 14.5 0 3.3.8 6.2 2.4 8.7s3.6 3.7 6 3.7c2.2 0 4-.6 5.4-1.7s2.5-1.8 3.3-2c1.5-.3 2.5-.4 3-.4 2.2 0 4 .7 5.2 2.1s1.8 3.1 1.8 5.3c0 1.5-.2 2.8-.7 3.9-1.2 2.8-3.7 4.9-7.6 6.5s-8.3 2.4-13.1 2.5c-8.3 0-15.2-2.2-20.8-6.7-5.5-4.5-8.3-11-8.3-19.6 0-2.1.1-3.8.2-5.1 1.1-7.5 4.2-13.1 9.4-16.8s12.1-6.8 20.8-9.2c5.1-1.5 10.8-2.6 17-3.3s10.9-1.1 14-1.1c0-5.3-1.3-9.6-4-12.9s-8.2-5-16.6-5c-6.3.2-10.2.9-11.8 2.2s-3.6 3.7-6.2 7.1c-2.5 3.4-5.6 5.3-9.3 5.9-3.2 0-5.7-.9-7.5-2.7s-2.7-4-2.7-6.5c0-1.9.5-3.7 1.4-5.3 1.8-3.2 4.7-5.9 8.8-8.1s8.5-3.7 13.4-4.7c4.8-1 9.4-1.5 13.7-1.5 4.6 0 9 .3 13.1 1 3.6.6 5.4 1 5.4 1.1h-.5v.1zm50.6 66.3v-51.1c0-1.9-.2-3.4-.6-4.4s-1.1-1.8-1.9-2.6-1.5-1.5-1.8-2-.5-1.5-.5-2.8c0-3.4 3-5.1 9-5.1.8 0 2 0 3.7.1s3 .1 3.9.1h7.2c3.3 0 5.7.3 7.2.9s2.3 1.9 2.3 4c0 1.7-.3 2.9-.7 3.5-.5.7-1.1 1.3-2 1.9s-1.5 1.2-2 2c-.4.7-.6 2-.6 3.9V465c0 1.9.5 3.3 1.5 4.2s2.5 1.8 4.5 2.6 3.4 1.6 4.4 2.3c1 .8 1.4 1.9 1.4 3.5-.3 2.2-2.7 4.6-7.3 7.1s-9.9 3.7-16 3.7c-3.5-.2-6.4-2.5-8.5-6.7s-3.2-10.2-3.2-18zm45.1 0v-51.1c0-1.9-.2-3.4-.6-4.4s-1.1-1.8-1.9-2.6c-.9-.8-1.5-1.5-1.8-2s-.5-1.5-.5-2.8c0-3.4 3-5.1 9.1-5.1.8 0 2 0 3.7.1s3 .1 3.9.1h7.2c3.3 0 5.7.3 7.2.9 1.6.6 2.3 1.9 2.3 4 0 1.7-.3 2.9-.7 3.5-.5.7-1.1 1.3-2 1.9s-1.5 1.2-2 2c-.4.7-.6 2-.6 3.9V465c0 1.9.5 3.3 1.5 4.2s2.5 1.8 4.5 2.6 3.4 1.6 4.4 2.3c1 .8 1.4 1.9 1.4 3.5-.3 2.2-2.7 4.5-7.4 7-4.6 2.5-10 3.8-15.9 3.8-3.6-.2-6.4-2.5-8.6-6.7-2.1-4.2-3.2-10.2-3.2-18zm74.2-22.9c-3.3 1.9-4.9 6.2-4.9 12.7 0 6.1 1.2 10.9 3.5 14.5 3.5 4.6 8.5 6.9 14.9 6.9 6.7 0 11.9-2.8 15.8-8.3 3-4.8 4.4-12.6 4.4-23.5 0-13.6-2.7-23.2-8.1-28.8-3.8-3.7-9-5.5-15.6-5.5-5.6 0-9.8 1.2-12.6 3.7-.8.6-1.8 1.6-3.1 3s-2.4 2.4-3.3 3.1-2.2 1.4-3.9 2.1c-.8.3-2 .4-3.7.4-5.3 0-7.9-3.2-7.9-9.7 1.2-5 5.1-9 11.7-11.8 6.6-2.9 14.7-4.3 24.1-4.3 15 0 26.3 3.8 33.9 11.4s11.5 17.9 11.7 31c0 16.5-3.3 29.1-10 37.7-6.6 8.7-17.5 13-32.6 13.1-12.8 0-23-2.9-30.8-8.6-7.8-5.8-11.8-14.2-12-25.4 0-10.1 2.8-17.5 8.3-22.3s12.2-7.2 19.9-7.2c1.2 0 3.1.2 5.6.4 3.5.5 6.3 1.9 8.3 4 2.1 2.2 3.1 4.5 3.1 7 0 2-.6 3.6-1.9 4.8-1.7 1.7-3.3 2.5-4.7 2.5-1.1 0-2.4-.7-4.1-2s-3-2-4-2c-.6.5-1.3.7-2 1.1zm134.8-14c0-5.3-1.4-9.6-4.1-12.9s-8.3-5-16.7-5c-6.2.2-10.2.9-11.8 2.3-1.7 1.3-3.7 3.7-6.2 7.1s-5.5 5.3-9.1 5.8c-3.1 0-5.6-.9-7.5-2.7-1.8-1.8-2.8-4-2.8-6.5 0-1.9.5-3.6 1.4-5.3 2.8-4.9 7.5-8.5 14.1-10.8s13.9-3.5 21.7-3.5c29.5 0 44.2 9.9 44.2 29.7v39.1c0 4.5.3 7.8 1 10.1.3.8 1 1.6 2.2 2.4 1.1.8 2 1.4 2.4 2 .5.6.7 1.6.7 3.2 0 2.4-1.1 4.1-3.2 5-2.2 1-6.3 1.4-12.4 1.4-3.8 0-6.6-.3-8.6-1s-3.4-1.9-4.1-3.6c-.8-1.7-1.2-4.3-1.2-7.8v-36.1c-2 0-6.1.5-12.4 1.4-6.2.9-11.7 2.4-16.2 4.4-6.2 2.7-9.3 7.6-9.3 14.5 0 3.3.8 6.2 2.4 8.7s3.6 3.7 5.9 3.7c2.2 0 4-.6 5.4-1.7s2.5-1.8 3.3-2c1.6-.3 2.6-.4 3-.4 2.2 0 4 .7 5.2 2.1s1.8 3.1 1.8 5.3c0 1.5-.2 2.8-.7 3.9-1.2 2.8-3.7 4.9-7.6 6.5s-8.3 2.4-13.1 2.5c-5.4 0-10.3-1-14.7-2.9s-7.9-4.9-10.5-8.8c-2.6-4-3.9-8.8-3.9-14.5 0-2.1.1-3.8.2-5.1 1.1-7.5 4.2-13.1 9.4-16.8s12.1-6.8 20.9-9.2c5.2-1.5 10.8-2.6 17-3.3 6-.8 10.7-1.2 13.9-1.2zm140.7 13.8c0-4.2 2.4-7.7 7.2-10.7s9.3-4.5 13.4-4.5c7.7 0 12.5 7.6 14.2 22.8.9 7.9 1.5 13.3 1.9 16.1s1.2 5.2 2.5 7.4c1.2 2.1 3.1 3.3 5.6 3.5 4.4 0 7.6-3 9.8-9s3.4-14.1 3.5-24.1c0-7.9-.3-14-1-18.3-.6-4.3-2.4-7.9-5.1-10.7-2.8-2.8-7.3-4.4-13.4-4.6-8.2 0-14.3.9-18.3 2.8s-7.7 4.3-11.1 7.2c-3.4 3-6.2 4.4-8.5 4.4-3.3-.2-4.9-2.8-4.9-7.6 0-2.5.7-4.9 2.1-6.9 3.1-4.4 8.2-7.8 15.5-10.1s15.8-3.5 25.6-3.5c9.7.1 17.5 1.3 23.3 3.7 5.8 2.3 10.1 5.4 12.7 9.2s4.3 7.7 5 11.7 1.1 8.9 1.4 14.8c0 .6 0 1.5.1 2.7s.1 2.2.1 2.8c0 14-2.7 25.7-8.2 34.9s-14.8 13.9-27.8 14.1c-9.6 0-16.5-1.4-20.9-4.1-4.3-2.7-7.1-7.4-8.2-14.1-.3-1.8-.8-5.2-1.4-10.4-.7-5.2-1.3-8.8-1.9-10.8-.6-2.1-1.6-3.6-2.9-4.6-.9-.7-2.8-1.3-5.6-1.8-2.9-.4-4.4-1.2-4.7-2.3zm64.2-60.7c-7.6 0-13.6-1.8-17.8-5.5-4.2-3.6-6.4-8-6.4-13 0-4.9 2-9.1 6.1-12.6s9.7-5.3 17-5.3c7.7 0 13.7 1.8 18 5.5s6.4 8 6.4 12.9-2 9.1-6.1 12.6c-4.1 3.6-9.8 5.4-17.2 5.4zm-.7-25.1c-2.6 0-4.6.7-6.1 2.1s-2.2 3-2.2 4.8.7 3.3 2.2 4.6c1.4 1.3 3.5 1.9 6.2 1.9 2.8 0 4.9-.6 6.4-1.9s2.2-2.9 2.2-4.7-.7-3.3-2.2-4.7c-1.6-1.5-3.7-2.1-6.5-2.1zm45.1 74.8c-3.6 0-7-1.2-10.2-3.7-3.1-2.4-4.7-5.7-4.7-9.7.2-4.5 4-9.3 11.4-14.3 6.9-4.8 16.1-7.1 27.7-7.1 10.9 0 19.6 2 26.3 6 6 3.6 9.7 7.4 11.2 11.3s2.2 8.8 2.2 14.6v45.1c0 1.8.2 3.1.6 3.8s1 1.4 1.8 1.9c.8.6 1.4 1.2 1.8 1.9s.6 1.9.6 3.6c-.1 1.9-.9 3.2-2.5 3.8-1.6.7-3.9 1-7 1h-6.5c-.9 0-2.2 0-3.9.1s-3 .1-3.7.1c-3 0-5.2-.3-6.8-1-1.5-.7-2.3-2-2.3-4 0-1.4.2-2.4.6-3s1-1.3 1.8-2 1.4-1.6 1.8-2.5.6-2.4.6-4.3v-43.3c0-6.4-1.1-11.2-3.4-14.6-2.3-3.3-7.3-5-15.2-5-6.7 0-11.2 1.3-13.6 3.9s-4.1 6-5 10.1c-1 4.6-2.2 6.9-3.6 7.3zm171 42.3c0 1.8.2 3 .6 3.8s1 1.4 1.9 2 1.6 1.2 2.1 1.9.8 1.9.8 3.6c0 2-.8 3.3-2.3 3.9-1.6.6-4 .9-7.2.9h-7.2c-.8 0-2.1 0-3.9.1s-3 .1-3.8.1c-3 0-5.2-.3-6.8-1-1.5-.7-2.3-2-2.3-4 0-1.4.2-2.4.6-3s1-1.3 1.8-2 1.4-1.6 1.8-2.5.6-2.4.6-4.3v-43.3c0-4.4-.3-7.8-.9-10.4-.6-2.5-2.2-4.7-4.9-6.4s-6.9-2.6-12.8-2.8c-3.8 0-7.2.4-10.2 1.3s-5.2 2-6.8 3.3-2.3 2.6-2.3 3.8c0 .7.3 1.3 1 1.8s1.9 1.3 3.7 2.3 3.2 2 4.1 2.8c.9.9 1.4 1.9 1.4 3 0 1.3-1.2 3-3.6 5.1s-4.1 3.6-5 4.7-1.4 2.9-1.4 5.4v29.7c0 1.8.2 3.1.6 3.9s1.1 1.4 1.9 2c.9.6 1.5 1.2 2 1.9s.7 1.9.8 3.5c0 2-.8 3.3-2.3 3.9s-3.9.9-7.2.9h-7.2c-.9 0-2.2 0-3.9.1s-3 .1-3.8.1c-3 0-5.2-.3-6.8-1-1.5-.7-2.3-2-2.3-4 0-1.4.2-2.4.6-3s1-1.3 1.8-2 1.4-1.6 1.8-2.5.6-2.4.6-4.3v-26.9c0-3.4.7-6 2-7.9 1.3-1.8 3-3.6 5.1-5.3s3.1-3 3.1-3.9-1.3-2.1-4-3.5-4.6-2.6-5.7-3.4-1.7-2.1-1.7-4c0-4.8 4.6-9.9 13.7-15.2 7.8-4.5 17.9-6.7 30.2-6.7 11.7 0 21.1 2 28 6 6 3.6 9.7 7.4 11.2 11.3s2.2 8.8 2.2 14.6v45.6h.3zm-21.6-114.3c1.2 2.7 5.9 4.1 13.9 4.1 8.3 0 14.9-1.1 20.1-3.4 2.5-1.2 4.7-2.4 6.4-3.6s3.5-2.5 5.3-4 3.2-2.5 4.1-3.2c1-.7 1.9-1 2.7-1 1.1.5 1.6 3.4 1.6 8.8 0 3.4-.4 5.7-1.2 6.9-1 1.6-3.4 3.4-7 5.4-3.7 2-8.5 3.7-14.4 5.2-5.9 1.4-12.6 2.2-20.2 2.2-3 0-5.2-.1-6.8-.2-7.5-.5-14.7-2.2-21.6-5.2-6.9-2.9-10.3-6.9-10.3-11.9 0-.5.2-1.3.5-2.5.8-2.9 3.4-5.3 7.8-7.1s8.8-2.7 13.2-2.7c3.2 0 5.4.5 6.5 1.6.8.8 1.1 1.6 1.1 2.5 0 .6-.3 1.8-.9 3.5-.5 1.6-.8 3.2-.8 4.6zm85.8 51c-14.2.2-22.1 8-23.7 23.5-.2 1.4-.2 3.6-.2 6.6 0 6.1.6 12.3 1.8 18.6 1.2 6.2 2.6 10.4 4 12.5.5-.6 1.3-2.1 2.6-4.4 1.2-2.3 2.6-5.2 3.9-8.7 3.6-8.8 5.4-15.1 5.4-18.7 0-1-.3-1.9-1-2.5-.6-.6-1.6-1.3-2.8-1.9s-2.1-1.1-2.6-1.5c-.6-.4-.9-1-.9-1.6 0-2.2 1.8-4 5.5-5.5 3.7-1.4 8-2.1 12.8-2.1 5.8 1 8.9 4.8 9.1 11.5 0 2.5-.5 5.3-1.4 8.5-4.1 15.3-9 27.4-14.7 36.4-2.3 3.7-4.5 6.1-6.6 7.1-2.1 1.1-4.9 1.6-8.3 1.6h-6.2c-4.4 0-7.5-.3-9.4-.9s-3.7-1.9-5.2-4c-2.2-3.1-4.5-9-6.7-17.9s-3.4-17.5-3.4-26c0-9.9 1.6-17.9 4.9-24.2 4-7.5 9.3-12.6 16.1-15.5 6.7-2.8 15.2-4.3 25.4-4.6 18.9 0 32.3 3.7 40.2 11.1 3.6 3.2 5.9 6.7 6.9 10.7 1 3.9 1.5 8.7 1.5 14.4v40.7c0 1.8.2 3 .6 3.8s1 1.4 1.9 2 1.6 1.2 2 1.9c.5.7.7 1.9.8 3.6 0 2-.8 3.3-2.3 3.9-1.6.6-4 .9-7.2.9h-7.2c-.9 0-2.2 0-3.9.1s-3 .1-3.7.1c-6.1 0-9.1-1.7-9.1-5.1 0-1.4.2-2.4.6-3s1-1.3 1.8-2 1.4-1.6 1.8-2.5.6-2.4.6-4.3v-37.5c0-7.7-1.6-13.9-4.9-18.4-3.2-4.4-9.5-6.7-18.8-6.7z" class="st1" style="fill:#000;fill-opacity:1"/></svg>